<?xml version="1.0" encoding="UTF-8"?>
<svg id="svg1931" xmlns="http://www.w3.org/2000/svg" xmlns:svg="http://www.w3.org/2000/svg" xmlns:sodipodi="http://sodipodi.sourceforge.net/DTD/sodipodi-0.dtd" xmlns:rdf="http://www.w3.org/1999/02/22-rdf-syntax-ns#" xmlns:inkscape="http://www.inkscape.org/namespaces/inkscape" xmlns:dc="http://purl.org/dc/elements/1.1/" xmlns:cc="http://web.resource.org/cc/" version="1.1" viewBox="0 0 694.3 163.6">
  <defs>
    <style>
      .cls-1 {
        fill: #000;
      }

      .cls-1, .cls-2, .cls-3 {
        stroke-width: 0px;
      }

      .cls-2 {
        fill: #828282;
      }

      .cls-3 {
        fill: #fff;
      }
    </style>
  </defs>
  <sodipodi:namedview id="base" width="195.94mm" height="46.16mm" bordercolor="#666666" borderopacity="1.0" inkscape:current-layer="layer1" inkscape:cx="350" inkscape:cy="520" inkscape:document-units="px" inkscape:pageopacity="0.0" inkscape:pageshadow="2" inkscape:window-height="574" inkscape:window-width="904" inkscape:window-x="184" inkscape:window-y="184" inkscape:zoom="0.35" pagecolor="#ffffff" units="mm"/>
  <g id="layer1" inkscape:groupmode="layer" inkscape:label="Ebene 1">
    <g id="Ebene_1">
      <g id="_130416664" data-name=" 130416664">
        <polygon id="_174638200" data-name=" 174638200" class="cls-2" points="5.3 114.4 372.4 114.4 372.4 158.2 5.3 158.2 5.3 114.4"/>
        <polygon id="_130731264" data-name=" 130731264" class="cls-1" points="62.9 59.2 62.9 103 82.9 103 82.9 5.3 62.9 5.3 62.9 42.3 25.6 42.3 25.6 5.3 5.6 5.3 5.6 103 25.6 103 25.6 59.2 62.9 59.2"/>
        <polygon id="_174625368" data-name=" 174625368" class="cls-1" points="154.3 30.6 135.6 30.6 135.6 72.4 135.6 73.6 135.6 74.7 135.4 75.8 135.3 76.8 135.1 77.7 134.8 78.7 134.6 79.6 134.3 80.4 133.9 81.2 133.5 81.9 133.2 82.6 132.7 83.3 132.3 83.9 131.8 84.4 131.3 85 130.8 85.4 130.2 85.9 129.7 86.3 129.1 86.7 128.5 87 127.9 87.4 127.3 87.6 126.7 87.9 126.1 88.1 125.5 88.3 124.9 88.4 124.2 88.6 123.6 88.6 123 88.7 122.4 88.8 121.8 88.8 121.2 88.8 120.2 88.8 119.1 88.7 118 88.6 116.9 88.3 116.4 88.2 115.9 88 115.4 87.8 114.9 87.6 114.4 87.3 113.9 87 113.5 86.7 113 86.3 112.6 85.9 112.2 85.6 111.8 85.1 111.5 84.6 111.1 84.1 110.8 83.5 110.5 82.9 110.2 82.3 110 81.6 109.7 80.9 109.6 80.1 109.4 79.3 109.3 78.4 109.2 77.5 109.1 76.5 109.1 75.5 109.1 30.6 90.5 30.6 90.5 78.2 90.5 79.9 90.6 81.6 90.7 83.2 90.9 84.7 91.2 86.2 91.5 87.5 91.8 88.9 92.3 90.2 92.7 91.4 93.3 92.6 93.8 93.7 94.4 94.8 95 95.8 95.8 96.8 96.5 97.7 97.3 98.5 98.1 99.3 99 100 99.9 100.7 100.8 101.3 101.8 101.9 102.8 102.4 103.8 102.9 104.9 103.3 106 103.7 107.2 104 108.3 104.3 109.5 104.5 110.8 104.7 112 104.8 113.3 104.9 114.6 104.9 115.5 104.9 116.4 104.8 117.3 104.7 118.2 104.7 119 104.6 119.9 104.4 120.7 104.3 121.5 104.1 122.3 103.8 123.1 103.6 123.9 103.4 124.6 103.1 125.4 102.8 126.1 102.4 126.8 102.1 127.5 101.7 128.2 101.3 128.8 100.9 129.4 100.5 130.1 100 130.7 99.5 131.3 99 131.8 98.5 132.4 98 132.9 97.4 133.5 96.8 133.9 96.2 134.4 95.5 134.9 94.9 135.3 94.2 135.8 93.5 136.2 92.8 136.4 92.8 136.4 103 154.3 103 154.3 30.6"/>
        <path id="_130804104" data-name=" 130804104" class="cls-1" d="M281.6,81.8v.5c-.1,0-.3.5-.3.5l-.2.4-.2.5-.3.4-.3.4-.3.4-.3.4-.3.3-.3.3-.3.3-.3.3-.8.6-.8.6-.9.5-.9.4-.9.3-.9.3-.9.2-1,.2h-.9c0,0-1,.1-1,.1h-1.4s-1.3-.2-1.3-.2l-1.2-.2-1.2-.2-1.1-.3-1-.3-.9-.4-.9-.4-.8-.5-.7-.5-.7-.6-.6-.6-.6-.6-.5-.7-.5-.6-.5-.7-.4-.7-.3-.7-.3-.7-.3-.7-.3-.8-.2-.7-.2-.7v-.7c-.1,0-.4-1.4-.4-1.4l-.2-1.3-.2-1.2v-1.1c0,0,48.5,0,48.5,0v-6.5s-.2-2.9-.2-2.9l-.3-2.7-.4-2.6-.5-2.4-.6-2.3-.6-2.2-.7-2.1-.8-1.9-.9-1.8-.9-1.7-1-1.6-1.1-1.5-1.1-1.3-1.2-1.2-1.2-1.2-1.2-1.1-1.3-.9-1.3-.9-1.4-.8-1.4-.7-1.4-.6-1.4-.6-1.4-.5-1.5-.4-1.4-.3-1.4-.3-1.4-.2-1.4-.2h-1.4c0-.1-1.3-.2-1.3-.2h-1.3s-2.9,0-2.9,0l-2.6.3-2.5.4-2.3.5-2.2.6-2.1.8-1.9.9-1.8,1-1.7,1.1-1.5,1.2-1.5,1.2-1.3,1.3-1.2,1.4-1.1,1.4-1,1.5-.9,1.5-.8,1.5-.7,1.5-.6,1.5-.6,1.5-.5,1.5-.4,1.5-.3,1.5-.3,1.5-.3,1.4-.2,1.4-.2,1.3v1.2c0,0-.2,1.2-.2,1.2v1.1c0,0-.1.9-.1.9v3.6s.2,2.6.2,2.6l.2,2.5.3,2.4.4,2.3.4,2.2.6,2.1.6,2,.7,1.8.8,1.8.8,1.7.9,1.6,1,1.5,1,1.4,1.1,1.3,1.2,1.2,1.2,1.1,1.2,1,1.3,1,1.4.9,1.4.8,1.5.7,1.5.6,1.6.6,1.6.5,1.7.4,1.7.3,1.8.3,1.8.2h1.8c0,.1,1.8.2,1.8.2h1.9s1.1,0,1.1,0h1.2c0,0,1.2-.2,1.2-.2h1.2c0,0,1.2-.3,1.2-.3l1.2-.2,1.2-.3,1.2-.3,1.2-.3,1.2-.3,1.1-.4,1.2-.5,1.1-.5,1.1-.5,1.1-.6,1.1-.7,1-.7,1-.8,1-.8,1-.9.9-.9.9-1,.9-1,.9-1.1.8-1.2.8-1.2.7-1.3.7-1.3.6-1.4.6-1.5.6-1.5.5-1.6h-19.2ZM253.4,59.6v-.9c.1,0,.3-.9.3-.9l.2-.8.2-.8.2-.8.2-.8.3-.7.3-.7.3-.7.3-.6.3-.6.4-.6.3-.6.4-.6.4-.5.5-.5.4-.5.5-.4.5-.4.5-.4.6-.4.6-.3.6-.3.6-.3.6-.3.7-.2.7-.2h.7c0-.1.7-.3.7-.3h.8c0,0,.8-.1.8-.1h2s.6,0,.6,0h.6c0,0,.6.2.6.2h.6c0,.1.6.3.6.3l.6.2.6.2.6.2.6.3.6.3.6.3.6.3.5.4.5.4.5.5.5.5.5.6.5.6.4.6.4.6.4.7.4.7.3.8.3.8.3.8.3.9.2.9.2,1v1c.1,0,.3,1.1.3,1.1h-28.9Z"/>
        <polygon id="_21419224" data-name=" 21419224" class="cls-1" points="371.4 52.9 371.4 51.5 371.3 50 371.1 48.6 370.9 47.3 370.6 46 370.3 44.8 369.9 43.6 369.5 42.4 369 41.3 368.5 40.3 367.9 39.2 367.3 38.3 366.6 37.3 365.9 36.5 365.1 35.6 364.3 34.8 363.4 34.1 362.5 33.4 361.6 32.8 360.6 32.2 359.6 31.6 358.6 31.1 357.5 30.7 356.5 30.3 355.3 29.9 354.1 29.6 353 29.3 351.8 29.1 350.6 28.9 349.3 28.8 348 28.7 346.8 28.7 345.5 28.7 344.3 28.8 343.2 28.9 342.1 29.1 341 29.2 340 29.5 339 29.8 338.1 30.1 337.2 30.4 336.3 30.7 335.5 31.1 334.7 31.5 334 31.9 333.3 32.4 332.6 32.9 332 33.3 331.4 33.8 330.8 34.3 330.3 34.8 329.7 35.4 328.8 36.4 327.9 37.4 327.2 38.5 326.5 39.5 325.9 40.4 325.4 41.2 325.1 41.2 325.1 30.6 307.3 30.6 307.3 103 325.9 103 325.9 61.5 326 60.5 326 59.5 326.1 58.5 326.2 57.6 326.4 56.7 326.6 55.9 326.8 55 327.1 54.2 327.4 53.5 327.7 52.7 328 52 328.4 51.3 328.8 50.7 329.2 50.1 329.7 49.5 330.2 49 330.7 48.5 331.2 48 331.8 47.6 332.4 47.1 333 46.8 333.6 46.4 334.2 46.1 334.8 45.8 335.5 45.6 336.2 45.4 336.9 45.2 337.6 45 338.3 44.9 339.1 44.8 339.8 44.8 340.6 44.8 341.7 44.8 342.7 44.8 343.6 45 344.5 45.1 345.3 45.4 346.1 45.6 346.8 45.9 347.5 46.3 348.1 46.6 348.7 47 349.2 47.4 349.7 47.9 350.1 48.3 350.5 48.9 350.8 49.4 351.1 49.9 351.4 50.5 351.6 51 351.8 51.6 352 52.2 352.2 52.8 352.3 53.4 352.4 54 352.5 54.6 352.6 55.7 352.7 56.9 352.7 58 352.7 59 352.7 103 371.4 103 371.4 52.9"/>
        <path id="_21419368" data-name=" 21419368" class="cls-1" d="M445.5,5.3h-18.7v34.7h-.3l-.6-.9-.6-.9-.7-.9-.8-.9-.9-1-1-.9-.5-.5-.6-.5-.6-.4-.6-.4-.6-.4-.7-.4-.7-.4-.7-.3-.7-.4-.8-.3-.8-.3-.9-.3-.9-.3-.9-.2-.9-.2-1-.2h-1c0-.1-1.1-.2-1.1-.2h-1.1s-1.1,0-1.1,0h-1.5s-1.4.2-1.4.2l-1.5.2-1.4.3-1.4.3-1.4.4-1.3.5-1.3.5-1.3.6-1.3.7-1.2.8-1.2.8-1.2.9-1.1,1-1.1,1.1-1,1.1-1,1.2-.9,1.3-.9,1.3-.9,1.4-.8,1.5-.7,1.6-.7,1.6-.6,1.7-.6,1.8-.5,1.9-.4,1.9-.3,2-.3,2.1-.2,2.1v2.3c-.1,0-.2,2.3-.2,2.3v1.8s.1,1.8.1,1.8v1.8c.1,0,.3,1.8.3,1.8l.3,1.8.3,1.8.3,1.8.4,1.8.5,1.7.5,1.7.6,1.6.6,1.6.7,1.5.7,1.5.8,1.5.9,1.4.9,1.3,1,1.3,1.1,1.2,1.1,1.2,1.2,1,1.3,1,1.3.9,1.4.8,1.5.8,1.5.6,1.6.6,1.6.5,1.8.4,1.8.3,1.9.2h1.9s1.5,0,1.5,0h1.5c0,0,1.5-.3,1.5-.3l1.5-.3.7-.2.7-.2.7-.2.7-.2.7-.3.7-.3.7-.3.7-.3.7-.3.6-.4.6-.4.6-.4.6-.4.6-.5.6-.5.6-.5.6-.6.6-.6.6-.6.5-.6.5-.6.5-.7.5-.7.4-.8h.3v9.1h18.3V5.3h0ZM395.8,67.3v-1.1s0-1,0-1v-1.1s.1-1.1.1-1.1v-1c.1,0,.3-1,.3-1l.2-1,.2-1,.3-1,.3-.9.3-.9.3-.9.3-.9.4-.9.4-.8.5-.8.5-.8.5-.7.6-.7.6-.6.6-.6.6-.6.7-.5.7-.5.8-.4.8-.3.9-.3.9-.3.9-.2h1c0-.1,1-.3,1-.3h3.4c0,.1,1.1.3,1.1.3l1,.2.9.3.9.3.9.4.8.5.8.5.7.6.7.6.6.7.6.7.6.7.5.8.5.8.4.9.4.9.4.9.3.9.3.9.3,1,.3,1,.2,1,.2,1v1c.1,0,.3,1.1.3,1.1v1.1c0,0,.2,2.1.2,2.1v2.2s0,1,0,1v1s-.1,1-.1,1v1c0,0-.2,1-.2,1l-.2.9-.2.9-.3.9-.2.9-.3.9-.3.9-.3.9-.4.8-.4.8-.4.8-.5.8-.5.7-.6.7-.6.6-.6.6-.6.6-.7.6-.7.5-.8.4-.8.4-.9.4-.9.3-.9.2-.9.2h-1c0,.1-1,.2-1,.2h-1.1s-1.1,0-1.1,0h-1c0-.1-1-.3-1-.3l-.9-.3-.9-.3-.9-.4-.8-.4-.8-.5-.7-.6-.7-.6-.7-.6-.6-.7-.6-.7-.5-.8-.5-.8-.4-.8-.4-.9-.4-.9-.4-.9-.3-.9-.3-.9-.3-.9-.2-.9-.2-.9-.2-.9-.2-.9v-.9c0,0-.2-.9-.2-.9v-1.8c-.1,0-.2-1.7-.2-1.7h0Z"/>
        <polygon id="_174688624" data-name=" 174688624" class="cls-1" points="516.8 30.6 498.1 30.6 498.1 72.4 498.1 73.6 498.1 74.7 497.9 75.8 497.8 76.8 497.6 77.7 497.3 78.7 497.1 79.6 496.7 80.4 496.4 81.2 496 81.9 495.6 82.6 495.2 83.3 494.7 83.9 494.2 84.4 493.7 85 493.2 85.4 492.7 85.9 492.2 86.3 491.6 86.7 491 87 490.4 87.4 489.8 87.6 489.2 87.9 488.6 88.1 488 88.3 487.3 88.4 486.7 88.6 486.1 88.6 485.5 88.7 484.9 88.8 484.3 88.8 483.7 88.8 482.7 88.8 481.6 88.7 480.5 88.6 479.4 88.3 478.9 88.2 478.4 88 477.9 87.8 477.4 87.6 476.9 87.3 476.4 87 476 86.7 475.5 86.3 475.1 85.9 474.7 85.6 474.3 85.1 474 84.6 473.6 84.1 473.3 83.5 473 82.9 472.7 82.3 472.5 81.6 472.2 80.9 472 80.1 471.9 79.3 471.8 78.4 471.7 77.5 471.6 76.5 471.6 75.5 471.6 30.6 453 30.6 453 78.2 453 79.9 453.1 81.6 453.2 83.2 453.4 84.7 453.7 86.2 454 87.5 454.3 88.9 454.8 90.2 455.2 91.4 455.7 92.6 456.3 93.7 456.9 94.8 457.5 95.8 458.2 96.8 459 97.7 459.8 98.5 460.6 99.3 461.4 100 462.3 100.7 463.3 101.3 464.3 101.9 465.3 102.4 466.3 102.9 467.4 103.3 468.5 103.7 469.6 104 470.8 104.3 472 104.5 473.2 104.7 474.5 104.8 475.8 104.9 477.1 104.9 478 104.9 478.9 104.8 479.8 104.7 480.7 104.7 481.5 104.6 482.4 104.4 483.2 104.3 484 104.1 484.8 103.8 485.6 103.6 486.3 103.4 487.1 103.1 487.8 102.8 488.6 102.4 489.3 102.1 490 101.7 490.6 101.3 491.3 100.9 491.9 100.5 492.5 100 493.2 99.5 493.7 99 494.3 98.5 494.9 98 495.4 97.4 495.9 96.8 496.4 96.2 496.9 95.5 497.4 94.9 497.8 94.2 498.3 93.5 498.6 92.8 498.9 92.8 498.9 103 516.8 103 516.8 30.6"/>
        <path id="_21419344" data-name=" 21419344" class="cls-1" d="M574.1,67.3v1.7s-.2,1.8-.2,1.8v.9c-.1,0-.2.9-.2.9l-.2.9-.2.9-.2.9-.2.9-.3.9-.3.9-.3.9-.4.9-.4.9-.4.9-.5.8-.5.8-.5.8-.6.7-.6.7-.7.6-.7.6-.7.6-.8.5-.8.4-.9.4-.9.3-.9.3-1,.2h-1c0,.1-1.1.2-1.1.2h-1.1s-1-.1-1-.1h-1c0-.1-.9-.3-.9-.3l-.9-.2-.9-.3-.9-.4-.8-.4-.8-.4-.7-.5-.7-.6-.6-.6-.6-.6-.6-.6-.6-.7-.5-.7-.5-.8-.4-.8-.4-.8-.4-.8-.3-.9-.3-.9-.3-.9-.2-.9-.3-.9-.2-.9-.2-.9v-1c-.1,0-.2-1-.2-1v-1c0,0,0-1,0-1v-1s0-2.2,0-2.2v-2.1c.1,0,.2-1.1.2-1.1v-1.1c.1,0,.3-1,.3-1l.2-1,.2-1,.3-1,.3-1,.3-.9.3-.9.4-.9.4-.9.4-.9.5-.8.5-.8.6-.7.6-.7.6-.7.7-.6.7-.6.8-.5.8-.5.9-.4.9-.3.9-.3,1-.2,1.1-.2h1.1c0-.1,1.2-.1,1.2-.1h2.1c0,.1,1,.3,1,.3l.9.2.9.3.9.3.8.3.8.4.7.5.7.5.6.6.6.6.6.6.6.7.5.7.5.8.5.8.4.8.4.9.3.9.3.9.3.9.3.9.3,1,.2,1,.2,1v1c.1,0,.3,1,.3,1v1.1c0,0,.1,1.1.1,1.1v1s0,1.1,0,1.1h0ZM543,5.3h-18.7v97.7h18.3v-9.1h.3l.4.8.5.7.5.7.5.6.5.6.6.6.6.6.6.6.6.5.6.5.6.5.6.4.6.4.6.4.6.4.7.3.7.3.7.3.7.3.7.3.7.2.7.2.7.2.7.2,1.5.3,1.5.2h1.5c0,0,1.5.1,1.5.1h1.9s1.9-.2,1.9-.2l1.8-.3,1.8-.4,1.6-.5,1.6-.6,1.5-.6,1.5-.8,1.4-.8,1.3-.9,1.3-1,1.2-1,1.1-1.2,1.1-1.2,1-1.3.9-1.3.9-1.4.8-1.5.7-1.5.7-1.5.6-1.6.6-1.6.5-1.7.5-1.7.4-1.8.3-1.8.3-1.8.3-1.8.2-1.8v-1.8c.1,0,.2-1.8.2-1.8v-1.8s0-2.3,0-2.3v-2.3c-.1,0-.3-2.1-.3-2.1l-.3-2.1-.3-2-.4-1.9-.5-1.9-.6-1.8-.6-1.7-.7-1.6-.7-1.6-.8-1.5-.9-1.4-.9-1.3-.9-1.3-1-1.2-1-1.1-1.1-1.1-1.1-1-1.2-.9-1.2-.8-1.2-.8-1.3-.7-1.3-.6-1.3-.5-1.3-.5-1.4-.4-1.4-.3-1.4-.3-1.5-.2h-1.4c0-.1-1.5-.2-1.5-.2h-1.1s-1.1,0-1.1,0h-1.1c0,0-1,.2-1,.2l-.9.2-.9.2-.9.2-.9.3-.9.3-.8.3-.8.3-.7.4-.7.3-.7.4-.7.4-.6.4-.6.4-.6.4-.6.5-.5.5-1,.9-.9,1-.8.9-.7.9-.6.9-.6.9h-.3V5.3h0Z"/>
        <path id="_174688576" data-name=" 174688576" class="cls-1" d="M645.4,81.8v.5c-.1,0-.3.5-.3.5l-.2.4-.2.5-.2.4-.3.4-.3.4-.3.4-.3.3-.3.3-.3.3-.4.3-.7.6-.8.6-.9.5-.9.4-.9.3-.9.3-.9.2-1,.2h-1c0,0-.9.1-.9.1h-1.4s-1.3-.2-1.3-.2l-1.2-.2-1.2-.2-1.1-.3-1-.3-.9-.4-.9-.4-.8-.5-.8-.5-.7-.6-.6-.6-.6-.6-.5-.7-.5-.6-.4-.7-.4-.7-.3-.7-.3-.7-.3-.7-.3-.8-.2-.7-.2-.7-.2-.7-.3-1.4-.2-1.3-.2-1.2v-1.1c0,0,48.5,0,48.5,0v-6.5s-.2-2.9-.2-2.9l-.3-2.7-.4-2.6-.5-2.4-.6-2.3-.6-2.2-.7-2.1-.8-1.9-.9-1.8-.9-1.7-1-1.6-1.1-1.5-1.1-1.3-1.2-1.2-1.2-1.2-1.2-1.1-1.3-.9-1.3-.9-1.4-.8-1.4-.7-1.4-.6-1.4-.6-1.4-.5-1.4-.4-1.4-.3-1.4-.3-1.4-.2-1.4-.2h-1.4c0-.1-1.4-.2-1.4-.2h-1.3s-2.8,0-2.8,0l-2.6.3-2.5.4-2.4.5-2.2.6-2.1.8-1.9.9-1.8,1-1.7,1.1-1.5,1.2-1.5,1.2-1.3,1.3-1.2,1.4-1.1,1.4-1,1.5-.9,1.5-.8,1.5-.7,1.5-.7,1.5-.6,1.5-.5,1.5-.4,1.5-.4,1.5-.3,1.5-.3,1.4-.2,1.4-.2,1.3v1.2c-.1,0-.2,1.2-.2,1.2v1.1s0,.9,0,.9v3.6s.2,2.6.2,2.6l.2,2.5.3,2.4.4,2.3.5,2.2.6,2.1.6,2,.7,1.8.7,1.8.9,1.7.9,1.6,1,1.5,1,1.4,1.1,1.3,1.2,1.2,1.2,1.1,1.3,1,1.3,1,1.4.9,1.5.8,1.5.7,1.5.6,1.6.6,1.6.5,1.7.4,1.7.3,1.8.3,1.8.2h1.8c0,.1,1.8.2,1.8.2h1.9s1.1,0,1.1,0h1.2c0,0,1.2-.2,1.2-.2h1.2c0,0,1.2-.3,1.2-.3l1.2-.2,1.2-.3,1.2-.3,1.2-.3,1.2-.3,1.2-.4,1.2-.5,1.1-.5,1.1-.5,1.1-.6,1.1-.7,1-.7,1-.8,1-.8,1-.9.9-.9.9-1,.9-1,.9-1.1.8-1.2.8-1.2.7-1.3.7-1.3.6-1.4.6-1.5.6-1.5.5-1.6h-19.2,0ZM617.3,59.6v-.9c.1,0,.3-.9.3-.9v-.8c.1,0,.3-.8.3-.8l.2-.8.2-.8.3-.7.3-.7.3-.7.3-.6.3-.6.3-.6.4-.6.4-.6.4-.5.4-.5.5-.5.5-.4.5-.4.6-.4.6-.4.6-.3.6-.3.6-.3.6-.3.6-.2.7-.2h.7c0-.1.8-.3.8-.3h.8c0,0,.8-.1.8-.1h2s.6,0,.6,0h.6c0,0,.6.2.6.2h.6c0,.1.6.3.6.3l.6.2.6.2.6.2.6.3.6.3.6.3.5.3.6.4.5.4.5.5.5.5.5.6.4.6.4.6.4.6.4.7.4.7.3.8.3.8.3.8.3.9.2.9.2,1v1c.1,0,.3,1.1.3,1.1h-28.9Z"/>
        <polygon id="_174689984" data-name=" 174689984" class="cls-1" points="689 5.3 670.3 5.3 670.3 103 689 103 689 5.3"/>
        <path id="_174689000" data-name=" 174689000" class="cls-3" d="M65.1,131.5l-4.3,20.3h7.1s.9,0,.9,0h.9c0,0,.8-.2.8-.2h.6c0,0,.6-.2.6-.2l.6-.2.6-.2.6-.3.6-.3.6-.3.6-.4.4-.3.4-.4.4-.4.4-.4.4-.4.3-.5.3-.5.3-.5.3-.5.3-.6.3-.5.2-.6.2-.6.2-.6.2-.6v-.6c.1,0,.3-.7.3-.7v-.7c0,0,.2-.7.2-.7v-1.9c0,0-.2-.6-.2-.6v-.6c-.1,0-.3-.6-.3-.6l-.2-.5-.2-.5-.3-.4-.3-.4-.3-.4-.4-.3-.4-.3-.6-.4-.6-.3-.6-.2-.8-.2h-.9c0-.1-1-.3-1-.3h-1.2s-1.4,0-1.4,0h-5.5ZM68.5,135.1h2.2s.6,0,.6,0h.6c0,0,.5.1.5.1h.5c0,.1.4.2.4.2l.4.2.3.2.3.2.3.3.3.2.2.3.2.3.2.3.2.3v.3c0,0,.2.4.2.4v.4c0,0,.1.4.1.4v1.4s-.1.5-.1.5v.5c0,0-.3.9-.3.9l-.3.8-.3.8-.4.7-.4.6-.4.6-.5.5-.5.5-.5.3-.5.3-.5.2-.6.2h-.6c0,.1-.7.3-.7.3h-.8s-.9,0-.9,0h-1.8l2.8-13h0Z"/>
        <path id="_130381072" data-name=" 130381072" class="cls-3" d="M87.2,138.4h-4l-2.8,13.4h4l2.8-13.4ZM86.8,130.9h-.3s-.2,0-.2,0h-.3c0,0-.2.2-.2.2l-.5.2-.4.3-.3.3-.3.4v.3c-.1,0-.3.2-.3.2v.3c0,0-.1.3-.1.3v.2s0,.3,0,.3v.4s0,.2,0,.2v.2c0,0,.2.2.2.2v.2c.1,0,.3.2.3.2h.2c0,.1.2.2.2.2h.2c0,.1.2.2.2.2h.2c0,0,.2.1.2.1h.7s.2-.1.2-.1h.3s.4-.3.4-.3l.4-.3.3-.3.3-.4v-.2c.1,0,.3-.2.3-.2v-.2c0,0,.1-.3.1-.3v-.3s0-.2,0-.2v-.5s0-.2,0-.2v-.2c0,0-.2-.2-.2-.2v-.2c-.1,0-.3-.2-.3-.2h-.1c0-.1-.2-.3-.2-.3h-.2c0,0-.2-.2-.2-.2h-.2c0,0-.2,0-.2,0h-.3Z"/>
        <path id="_129949872" data-name=" 129949872" class="cls-3" d="M101.9,145.9l.2-.9v-.9c0,0,0-.8,0-.8v-.8s-.1-.7-.1-.7l-.2-.6-.2-.6-.3-.6-.3-.5-.4-.4-.5-.3-.5-.3-.6-.2-.6-.2h-.7c0-.1-.8-.1-.8-.1h-1.5c0,.1-.7.3-.7.3l-.7.2-.6.3-.6.3-.6.4-.6.4-.5.5-.5.5-.4.6-.4.6-.3.6-.3.7-.3.7-.2.7v.8c-.1,0-.2.8-.2.8v1.4c0,0,.3.6.3.6l.2.6.3.6.3.5.4.5.5.4.5.3.6.3.6.2.6.2h.7c0,0,.8.1.8.1h1s.5-.1.5-.1h.5c0,0,.4-.2.4-.2h.4c0-.1.4-.3.4-.3l.4-.2.4-.3.4-.3.4-.3.4-.3.4-.3.4-.3.4-.4.4-.4-2.4-1.8-.5.5-.5.4-.5.3-.4.3-.5.2h-.5c0,.1-.5.2-.5.2h-.5s-.3,0-.3,0h-.3s-.3-.1-.3-.1h-.3c0,0-.3-.2-.3-.2l-.2-.2h-.2c0-.1-.2-.3-.2-.3l-.2-.2v-.2c-.1,0-.3-.3-.3-.3v-.3c0,0-.2-.3-.2-.3v-.3s0-.3,0-.3v-.3h9.6,0ZM92.9,143.3l.3-.5.3-.5.4-.4.4-.3.4-.2.4-.2h.5c0,0,.5-.1.5-.1h.5s.4.1.4.1h.2c0,0,.2.2.2.2h.1c0,.1.2.3.2.3l.3.3.2.4v.4c.1,0,.2.5.2.5h-5.5Z"/>
        <polygon id="_21419176" data-name=" 21419176" class="cls-3" points="141.2 131.5 136.7 131.5 130.4 144.2 128.8 131.5 125.9 131.5 119 144.2 118 131.5 113.8 131.5 115.3 151.8 118.9 151.8 125.6 139.5 127.2 151.8 130.9 151.8 141.2 131.5"/>
        <path id="_130498328" data-name=" 130498328" class="cls-3" d="M151.1,145.9l.2-.9v-.9c0,0,.1-.8.1-.8v-.8s-.2-.7-.2-.7l-.2-.6-.2-.6-.3-.6-.3-.5-.4-.4-.5-.3-.5-.3-.6-.2-.6-.2h-.7c0-.1-.8-.1-.8-.1h-1.5c0,.1-.7.3-.7.3l-.6.2-.7.3-.6.3-.6.4-.6.4-.5.5-.5.5-.5.6-.4.6-.3.6-.3.7-.3.7-.2.7v.8c-.1,0-.2.8-.2.8v.7s0,.6,0,.6l.2.6.2.6.3.6.3.5.4.5.5.4.5.3.6.3.6.2.7.2h.7c0,0,.8.1.8.1h1s.5-.1.5-.1h.5c0,0,.4-.2.4-.2h.4c0-.1.5-.3.5-.3l.4-.2.4-.3.4-.3.4-.3.4-.3.4-.3.4-.3.4-.4.4-.4-2.4-1.8-.5.5-.5.4-.5.3-.4.3-.5.2h-.5c0,.1-.5.2-.5.2h-.5s-.3,0-.3,0h-.3s-.3-.1-.3-.1h-.3c0,0-.3-.2-.3-.2l-.2-.2h-.2c0-.1-.2-.3-.2-.3l-.2-.2v-.2c-.1,0-.3-.3-.3-.3v-.3c0,0-.2-.3-.2-.3v-.3s0-.3,0-.3v-.3s9.6,0,9.6,0h0ZM142.1,143.3l.3-.5.3-.5.4-.4.4-.3.4-.2.4-.2h.5c0,0,.6-.1.6-.1h.5s.4.1.4.1h.2c0,0,.2.2.2.2h.2c0,.1.1.3.1.3h.1c0,.1.1.3.1.3v.2c0,0,.2.2.2.2v.4c.1,0,.2.5.2.5h-5.5Z"/>
        <polygon id="_129791152" data-name=" 129791152" class="cls-3" points="161.1 129.9 157.1 129.9 152.5 151.8 156.4 151.8 161.1 129.9"/>
        <polygon id="_130428744" data-name=" 130428744" class="cls-3" points="168.1 134.3 164.2 134.3 163.3 138.4 162 138.4 161.3 141.6 162.6 141.6 160.5 151.8 164.4 151.8 166.6 141.6 169 141.6 169.6 138.4 167.3 138.4 168.1 134.3"/>
        <path id="_131079688" data-name=" 131079688" class="cls-3" d="M195.4,129.9h-4l-2.1,9.9-.4-.4-.4-.3-.4-.3-.5-.3-.5-.2h-.6c0-.1-.6-.2-.6-.2h-1.9c0,.1-.7.3-.7.3l-.6.2-.6.3-.6.3-.6.4-.6.4-.5.5-.5.5-.5.6-.4.6-.3.6-.3.7-.3.7-.2.7v.7c-.1,0-.2.7-.2.7v1.3c0,0,.2.6.2.6l.2.6.3.5.3.5.4.4.4.4.5.3.6.3.6.3.6.2h.7c0,0,.7.1.7.1h.6s.6,0,.6,0h.5c0-.1.6-.3.6-.3l.5-.2.6-.3.6-.3.6-.4-.3,1.2h4l4.6-21.9h0ZM185.8,141.6h.7s.3.1.3.1h.3c0,.1.3.3.3.3l.3.2.2.2.2.2.2.3v.3c.1,0,.3.3.3.3v.3c0,0,.1.3.1.3v1c0,0-.2.4-.2.4v.3c-.1,0-.3.3-.3.3l-.2.3-.2.3-.2.3-.3.3-.3.3-.3.2-.3.2-.3.2h-.3c0,.1-.4.3-.4.3h-.3c0,0-.4.1-.4.1h-.3s-.4,0-.4,0h-.3s-.3-.1-.3-.1h-.3c0,0-.3-.3-.3-.3l-.3-.2-.2-.2-.2-.2-.2-.3v-.3c-.1,0-.2-.3-.2-.3v-.3c0,0-.1-.3-.1-.3v-.7s0-.4,0-.4v-.3c0,0,.2-.3.2-.3l.2-.3.2-.3.2-.3.2-.3.3-.3.3-.3.3-.2.3-.2.3-.2h.3c0-.1.3-.3.3-.3h.3c0,0,.4-.1.4-.1h.3Z"/>
        <path id="_130881688" data-name=" 130881688" class="cls-3" d="M207.4,145.9v-.9c.1,0,.2-.9.2-.9v-.8s0-.8,0-.8v-.7c-.1,0-.3-.6-.3-.6l-.2-.6-.3-.6-.3-.5-.4-.4-.5-.3-.5-.3-.6-.2-.6-.2h-.7c0-.1-.8-.1-.8-.1h-1.5c0,.1-.7.3-.7.3l-.7.2-.6.3-.6.3-.6.4-.6.4-.5.5-.5.5-.4.6-.4.6-.3.6-.3.7-.2.7-.2.7v.8c-.1,0-.2.8-.2.8v1.4c0,0,.2.6.2.6l.2.6.3.6.3.5.4.5.4.4.5.3.6.3.6.2.7.2h.7c0,0,.8.1.8.1h.9s.5-.1.5-.1h.5c0,0,.4-.2.4-.2h.5c0-.1.4-.3.4-.3l.4-.2.4-.3.4-.3.4-.3.4-.3.4-.3.4-.3.3-.4.4-.4-2.4-1.8-.5.5-.5.4-.5.3-.5.3-.5.2h-.4c0,.1-.5.2-.5.2h-.5s-.3,0-.3,0h-.3s-.3-.1-.3-.1h-.3c0,0-.2-.2-.2-.2l-.2-.2h-.2c0-.1-.2-.3-.2-.3l-.2-.2v-.2c-.1,0-.2-.3-.2-.3v-.3c-.1,0-.2-.3-.2-.3v-.3s0-.3,0-.3v-.3h9.6,0ZM198.4,143.3l.3-.5.3-.5.3-.4.4-.3.4-.2.5-.2h.5c0,0,.6-.1.6-.1h.5s.4.1.4.1h.2c0,0,.2.2.2.2h.2c0,.1.1.3.1.3l.3.3.2.4v.4c.1,0,.2.5.2.5h-5.5Z"/>
        <polygon id="_22939248" data-name=" 22939248" class="cls-3" points="214 151.8 215.2 145.9 215.4 145.2 215.6 144.5 215.9 143.9 216.2 143.4 216.5 143.1 216.8 142.8 217.1 142.6 217.5 142.4 217.8 142.2 218.1 142.1 218.5 142 218.9 142 219.2 142 219.5 142.1 219.9 142.3 220.3 142.5 221.2 138.1 220.5 138.2 219.8 138.3 219.2 138.5 218.6 138.8 218 139.1 217.5 139.5 216.9 139.9 216.3 140.4 216.8 138.4 212.8 138.4 210 151.8 214 151.8"/>
        <path id="_130358232" data-name=" 130358232" class="cls-3" d="M231.9,131.5l-4.3,20.3h8.1s.5,0,.5,0h.5c0,0,.5-.2.5-.2h.4c0,0,.4-.2.4-.2l.4-.2.4-.2.4-.2.4-.3.3-.2.3-.3.3-.3.3-.3.3-.3.3-.3.3-.4.2-.3.2-.4.2-.4v-.4c.1,0,.3-.5.3-.5v-.4c0,0,.2-.5.2-.5v-.5s0-.4,0-.4v-.8s-.1-.3-.1-.3v-.3c-.1,0-.3-.3-.3-.3l-.2-.3-.2-.3-.3-.3-.3-.3-.3-.2-.4-.2-.4-.2-.4-.2h.4c0-.1.4-.3.4-.3l.3-.2.3-.2.3-.2.3-.3.3-.2.3-.3.2-.3.2-.3.2-.3.2-.3v-.3c.1,0,.3-.4.3-.4v-.3c.1,0,.2-.4.2-.4v-.7c.1,0,.1-.6.1-.6v-.6s-.2-.6-.2-.6v-.3c0,0-.2-.3-.2-.3v-.3c-.1,0-.3-.2-.3-.2l-.2-.2-.2-.2-.2-.2-.3-.2-.4-.3-.5-.2-.6-.2h-.7c0-.1-.9-.2-.9-.2h-1s-1.2,0-1.2,0h-5.1ZM235.4,134.9h2.2c0,0,.5.2.5.2h.4c0,0,.3.3.3.3l.2.2v.2c.1,0,.3.3.3.3v.3c0,0,0,.3,0,.3v.7s-.1.3-.1.3v.3c-.1,0-.3.3-.3.3v.3c-.1,0-.3.3-.3.3l-.2.2-.2.2-.2.2h-.2c0,.1-.3.2-.3.2h-.2c0,0-.3.1-.3.1h-.6c0,0-.9.1-.9.1h-1.1l1-4.7h0ZM233.7,142.9h2s.7,0,.7,0h.6c0,.1.5.3.5.3l.3.2.2.2.2.3.2.3v.3c0,0,.1.3.1.3v.4s0,.4,0,.4v.4c0,0-.2.3-.2.3v.3c-.1,0-.3.3-.3.3l-.2.3-.2.2-.2.2-.3.2-.3.2h-.3c0,0-.3.2-.3.2h-.3s-.9.1-.9.1h-1.1s-1.3,0-1.3,0l1.2-5.4h0Z"/>
        <path id="_130842200" data-name=" 130842200" class="cls-3" d="M261.2,138.4h-4l-1.4,6.6-.2.7v.6c-.1,0-.3.5-.3.5l-.2.4-.2.3-.3.3-.3.2-.3.2-.3.2h-.4c0,0-.4.2-.4.2h-.4s-.3,0-.3,0h-.3s-.3-.1-.3-.1l-.3-.2h-.2c0-.1-.2-.3-.2-.3l-.2-.2v-.3c0,0-.2-.2-.2-.2v-.2s0-.2,0-.2v-.9c0,0,.2-.8.2-.8l1.4-6.7h-4l-1.5,7.1-.2.7v.6c0,0-.2.6-.2.6v1.4c0,0,.2.4.2.4l.2.4v.3c.1,0,.3.3.3.3l.2.3.3.2.2.2.3.2.3.2.3.2.3.2h.4c0,.1.3.2.3.2h.4c0,.1.4.2.4.2h.4s.4,0,.4,0h1.4s.9-.2.9-.2l.8-.2.8-.3.7-.3.7-.4.3-.2.3-.3.3-.2.2-.3.3-.4.3-.4.3-.4.2-.5.2-.5.2-.6.2-.6.2-.7,1.5-7.1h0ZM253,131.7h-.5s-.4.2-.4.2l-.4.2-.4.3-.3.3-.3.3-.2.4v.4c-.1,0-.2.3-.2.3v.6s0,.2,0,.2v.2s.2.2.2.2v.2c0,0,.2.1.2.1h.1c0,.1.2.3.2.3h.2c0,0,.2.2.2.2h.2s.2,0,.2,0h.6s.5-.2.5-.2l.4-.2.4-.3.3-.3.3-.3.2-.4v-.5c.1,0,.2-.2.2-.2v-.6s0-.2,0-.2v-.2c0,0-.2-.2-.2-.2v-.2c0,0-.2-.1-.2-.1h-.2c0-.1-.1-.3-.1-.3h-.2c0,0-.2-.2-.2-.2h-.2s-.2,0-.2,0h-.2ZM259.2,131.7h-.4s-.4.2-.4.2l-.4.2-.4.3-.3.3-.3.3-.2.4-.2.4v.5s0,.2,0,.2v.4s.1.2.1.2v.2c0,0,.2.2.2.2h.1c0,.1.1.3.1.3h.2c0,.1.2.2.2.2h.2c0,0,.2.1.2.1h.2s.2,0,.2,0h.4s.4-.2.4-.2l.4-.2.4-.3.3-.3.3-.3.2-.4.2-.5v-.4s0-.2,0-.2v-.4s-.1-.2-.1-.2v-.2c0,0-.2-.2-.2-.2h-.1c0-.1-.1-.3-.1-.3h-.2c0-.1-.2-.2-.2-.2h-.2c0,0-.2-.1-.2-.1h-.2s-.3,0-.3,0h0Z"/>
        <polygon id="_129953016" data-name=" 129953016" class="cls-3" points="273.9 138.8 273 138.5 272.2 138.2 271.8 138.2 271.4 138.1 271 138.1 270.6 138.1 269.9 138.1 269.2 138.2 268.5 138.4 267.8 138.6 267.2 138.9 266.6 139.2 265.9 139.7 265.4 140.1 264.8 140.6 264.3 141.1 263.9 141.7 263.4 142.3 263.1 143 262.8 143.7 262.5 144.4 262.3 145.1 262.2 145.9 262.2 146.6 262.2 147.3 262.2 147.9 262.4 148.5 262.6 149.1 262.9 149.7 263.2 150.1 263.6 150.5 264.1 150.9 264.5 151.3 265.1 151.6 265.7 151.8 266.3 152 267 152 267.8 152.1 268.2 152.1 268.6 152 269 152 269.4 151.9 270.3 151.7 271.2 151.4 272.1 147.4 271.6 147.7 271.1 148 270.7 148.2 270.4 148.3 270 148.5 269.6 148.5 269.3 148.5 268.9 148.6 268.6 148.5 268.3 148.5 268 148.4 267.8 148.3 267.5 148.2 267.3 148 267.1 147.8 266.9 147.6 266.8 147.3 266.6 147 266.5 146.7 266.5 146.4 266.4 146.1 266.4 145.8 266.4 145.4 266.5 145.1 266.6 144.7 266.7 144.4 266.9 144 267 143.7 267.2 143.4 267.5 143.1 267.7 142.8 267.9 142.6 268.2 142.3 268.5 142.1 268.8 142 269.1 141.8 269.4 141.7 269.7 141.6 270 141.6 270.4 141.6 270.7 141.6 271 141.6 271.3 141.7 271.7 141.8 272 142 272.3 142.1 272.7 142.3 273.1 142.6 273.9 138.8"/>
        <polygon id="_130428696" data-name=" 130428696" class="cls-3" points="283 129.9 279.1 129.9 274.5 151.8 278.4 151.8 279.9 145 280 144.6 280.1 144.2 280.2 143.8 280.4 143.5 280.5 143.2 280.7 142.9 280.9 142.7 281.1 142.5 281.3 142.3 281.6 142.1 281.9 141.9 282.1 141.8 282.4 141.7 282.7 141.6 283 141.6 283.3 141.6 283.6 141.6 283.8 141.6 284 141.7 284.2 141.7 284.4 141.9 284.6 142 284.7 142.2 284.8 142.3 284.9 142.6 285 142.8 285 143 285.1 143.3 285 144 284.9 144.7 283.4 151.8 287.4 151.8 289 144.1 289.2 142.9 289.3 142 289.3 141.6 289.3 141.2 289.3 140.9 289.2 140.5 289.1 140.2 289 140 288.9 139.7 288.7 139.5 288.5 139.3 288.3 139.1 288.1 138.9 287.9 138.7 287.6 138.5 287.4 138.4 287.1 138.3 286.8 138.2 286.5 138.2 286.2 138.1 285.8 138.1 285.5 138.1 284.9 138.1 284.4 138.2 283.8 138.3 283.3 138.5 282.7 138.8 282.1 139.1 281.6 139.4 281 139.9 283 129.9"/>
        <path id="_130734048" data-name=" 130734048" class="cls-3" d="M304.6,145.9v-.9c.1,0,.2-.9.2-.9v-.8s0-.8,0-.8v-.7c0,0-.3-.6-.3-.6l-.3-.6-.3-.6-.3-.5-.4-.4-.5-.3-.6-.3-.6-.2-.6-.2h-.7c0-.1-.7-.1-.7-.1h-1.5c0,.1-.7.3-.7.3l-.7.2-.6.3-.6.3-.6.4-.6.4-.5.5-.5.5-.4.6-.4.6-.4.6-.3.7-.2.7-.2.7v.8c-.1,0-.2.8-.2.8v1.4c0,0,.2.6.2.6l.2.6.3.6.3.5.4.5.5.4.5.3.6.3.6.2.7.2h.7c0,0,.8.1.8.1h.9s.5-.1.5-.1h.5c0,0,.5-.2.5-.2h.4c0-.1.4-.3.4-.3l.4-.2.4-.3.4-.3.4-.3.4-.3.4-.3.4-.3.3-.4.4-.4-2.4-1.8-.5.5-.5.4-.5.3-.5.3-.4.2h-.5c0,.1-.5.2-.5.2h-.5s-.3,0-.3,0h-.3s-.3-.1-.3-.1h-.3c0,0-.2-.2-.2-.2l-.2-.2h-.2c0-.1-.2-.3-.2-.3v-.2c-.1,0-.3-.2-.3-.2v-.3c-.1,0-.2-.3-.2-.3v-.3c0,0-.1-.3-.1-.3v-.3s0-.3,0-.3h9.6ZM295.6,143.3l.3-.5.3-.5.3-.4.4-.3.4-.2.5-.2h.5c0,0,.5-.1.5-.1h.5s.4.1.4.1h.2c0,0,.2.2.2.2h.2c0,.1.1.3.1.3h.1c0,.1.1.3.1.3v.2c.1,0,.2.2.2.2v.4c0,0,.2.5.2.5h-5.5Z"/>
        <polygon id="_129853744" data-name=" 129853744" class="cls-3" points="310 151.8 311.2 145.9 311.4 145.2 311.6 144.5 311.9 143.9 312.2 143.4 312.5 143.1 312.8 142.8 313.1 142.6 313.4 142.4 313.8 142.2 314.2 142.1 314.5 142 314.8 142 315.2 142 315.5 142.1 315.9 142.3 316.3 142.5 317.2 138.1 316.5 138.2 315.8 138.3 315.2 138.5 314.6 138.8 314 139.1 313.5 139.5 312.9 139.9 312.4 140.4 312.8 138.4 308.8 138.4 306 151.8 310 151.8"/>
        <path id="_131500984" data-name=" 131500984" class="cls-1" d="M210.9,30.6v10.7h-.3l-.5-.9-.5-1-.6-1-.7-1.1-.4-.5-.4-.5-.4-.6-.5-.5-.5-.5-.5-.5-.6-.5-.6-.5-.6-.5-.6-.5-.7-.4-.7-.4-.8-.4-.8-.3-.9-.3-.9-.3-.9-.3-.9-.3-1-.2-1-.2-1.1-.2h-1.2c0,0-1.2-.2-1.2-.2h-1.2s-1.5,0-1.5,0h-1.4c0,.1-1.5.3-1.5.3l-1.4.3-1.4.3-1.4.4-1.3.5-1.3.5-1.3.6-1.3.7-1.2.8-1.2.8-1.2.9-1.1,1-1.1,1.1-1,1.1-1,1.2-.9,1.3-.9,1.3-.9,1.4-.8,1.5-.7,1.6-.7,1.6-.6,1.7-.6,1.8-.5,1.9-.4,1.9-.3,2-.3,2.1-.2,2.1v2.3c-.1,0-.2,2.3-.2,2.3v2.3s.2,2.3.2,2.3l.2,2.2.3,2.1.3,2.1.4,1.9.5,1.9.6,1.8.6,1.8.7,1.6.7,1.6.8,1.5.9,1.4.9,1.4.9,1.2,1,1.2,1,1.2,1.1,1,1.2,1,1.2.9,1.2.9,1.3.7,1.3.7,1.4.6,1.4.6,1.4.5,1.5.4,1.5.3,1.5.3,1.5.2h1.5c0,0,1.6.1,1.6.1h2s.9-.1.9-.1h.9c0-.1.9-.3.9-.3h.9c0-.1.8-.3.8-.3l.8-.2.8-.3.7-.3.7-.3.7-.3.6-.3.6-.3.6-.4.6-.3.6-.4.5-.4.5-.4.5-.4.9-.9.8-.9.7-1,.7-1,.6-1,.6-1.1.3.3v9.8s0,1,0,1v1s-.2,1-.2,1v.9c-.1,0-.3.9-.3.9l-.2.9-.2.8-.2.8-.3.7-.3.7-.3.7-.4.6-.4.6-.4.6-.5.5-.5.5-.5.4-.5.4-.6.4-.6.3-.6.3-.6.3-.7.3-.7.2-.8.2-.8.2h-.8c0,.1-.9.3-.9.3h-.9s-.9.1-.9.1h-2.8s-.9,0-.9,0h-.8c0,0-.8-.2-.8-.2h-.7c0-.1-.7-.3-.7-.3h-.6c0-.1-.6-.3-.6-.3l-.6-.2-.5-.2-.5-.2-.5-.2-.4-.2-.4-.3-.3-.3-.3-.3-.3-.3-.3-.3-.3-.3-.4-.6-.3-.6-.3-.6-.2-.7-.2-.7-.2-.7h-20.3v1.4c.1,0,.3,1.4.3,1.4l.3,1.3.3,1.2.4,1.2.5,1.2.6,1.1.6,1.1.7,1,.8.9.8.9.9.9.9.8,1,.8,1,.7,1.1.7,1.1.6,1.2.6,1.2.6,1.2.5,1.2.5,1.2.4,1.3.3,1.3.3,1.3.3,1.4.3,1.3.2,1.4.2h1.4c0,.1,1.4.2,1.4.2h1.4c0,0,1.4,0,1.4,0h3.2s2.9-.2,2.9-.2l2.8-.3,2.6-.4,2.4-.5,2.3-.6,2.1-.7,2-.7,1.8-.9,1.7-.9,1.5-1,1.4-1,1.2-1.1,1.2-1.2,1-1.2.9-1.2.8-1.3.7-1.3.6-1.3.5-1.4.5-1.4.4-1.4.3-1.4.3-1.4.2-1.4.2-1.4v-1.4c.1,0,.2-1.3.2-1.3v-2.6c0,0,0-2.4,0-2.4V30.6h-17.9,0ZM179.6,67.2v-1.5s.1-1.5.1-1.5v-1.4c0,0,.3-1.3.3-1.3l.2-1.3.2-1.2.3-1.2.3-1.1.3-1,.3-1,.4-.9.4-.9.5-.8.5-.8.5-.7.5-.7.6-.6.6-.6.6-.5.6-.5.6-.4.6-.4.6-.3.6-.3.6-.3.7-.3.6-.2h.6c0-.1.7-.3.7-.3h.6c0,0,.6-.1.6-.1h2.6c0,0,.9.2.9.2l.9.2.9.2.8.3.8.3.8.4.7.4.7.5.7.5.6.6.6.6.6.6.6.7.5.7.5.8.5.8.4.8.4.9.3.9.3.9.3.9.3.9.2,1,.2,1,.2,1,.2,1v1.1c0,0,.2,1.1.2,1.1v1.1s0,1.1,0,1.1v1.9s-.2,1.9-.2,1.9v.9c0,0-.2.9-.2.9v.9c-.1,0-.3.9-.3.9l-.2.9-.3.9-.3.9-.3.9-.3.9-.3.8-.4.8-.4.7-.5.8-.5.7-.6.7-.6.6-.6.6-.7.6-.7.5-.7.5-.8.4-.9.4-.9.3-.9.3-1,.2-1,.2h-1.1c0,0-1.2,0-1.2,0h-2c0,0-.9-.3-.9-.3l-.9-.2-.9-.3-.8-.3-.8-.4-.7-.4-.7-.4-.6-.5-.6-.6-.6-.6-.6-.6-.5-.6-.5-.7-.5-.7-.4-.7-.4-.8-.4-.8-.3-.8-.3-.8-.3-.9-.3-.9-.2-.9-.2-.9-.2-.9v-.9c-.1,0-.2-.9-.2-.9v-.9c0,0-.2-.9-.2-.9v-1.8h0Z"/>
      </g>
    </g>
  </g>
</svg>