<?xml version="1.0" encoding="UTF-8"?>
<svg id="Ebene_1" data-name="Ebene 1" xmlns="http://www.w3.org/2000/svg" version="1.1" viewBox="0 0 407.4 155.3">
  <defs>
    <style>
      .cls-1 {
        fill: #000;
        stroke-width: 0px;
      }
    </style>
  </defs>
  <path class="cls-1" d="M343.5,121.7v-34.9l10.7-3.4c1.4-.4,2.8-.7,4.2-.7,2.2,0,3.8.6,4.7,1.7,1,1.2,1.4,3.1,1.4,5.8v31.5h9v-32.3c0-3-1.1-5.5-3.3-7.5-2.2-2-5-3-8.3-3s-2.4.1-4.2.4c-1.9.3-3.5.7-4.9,1.3l-9.5,3.8-2-4.8h-6.8v42h9ZM298.2,91.6c0-1.2.1-2.3.4-3.4s.8-2.1,1.5-3.1c.7-1,1.8-1.8,3.3-2.4,1.5-.6,3.2-.9,5.3-.9s3.5.3,4.9.8c1.4.5,2.5,1.3,3.3,2.2.8.9,1.4,2,1.8,3.1.4,1.1.6,2.4.6,3.7v4.5h-21v-4.5ZM304.4,118.4c-1.6-.6-2.8-1.5-3.6-2.5-.9-1-1.5-2.1-1.9-3.3s-.6-2.3-.6-3.4v-10.1h30v-6.8c0-.8-.1-1.7-.4-2.7-.3-1-.8-2.2-1.7-3.5-.9-1.3-2-2.5-3.3-3.5-1.3-1-3.2-1.9-5.7-2.7-2.4-.7-5.2-1.1-8.4-1.1s-5.8.3-8.2,1c-2.4.7-4.3,1.5-5.7,2.5-1.4,1-2.5,2.2-3.4,3.5-.9,1.3-1.5,2.5-1.8,3.6-.3,1.1-.5,2.2-.5,3.2v15.9c0,.8.1,1.7.4,2.6s.6,1.9,1.2,3c.6,1.1,1.3,2.1,2.4,3,1,.9,2.2,1.8,3.6,2.6,1.4.8,3.2,1.4,5.3,1.9,2.1.5,4.5.7,7.1.7s6.4-.4,9.6-1.3c3.2-.8,5.7-1.7,7.3-2.5l-1.5-3.5-7,2.4c-.1,0-.5.1-1.1.4-.6.2-1.1.4-1.6.5-.4.1-1,.3-1.6.5-.6.2-1.3.3-1.8.4-.6,0-1.1.1-1.6.1-2,0-3.8-.3-5.4-1M265.7,111.9c0,2.9,1.3,5.4,4,7.4,2.7,2,5.7,3,9.1,3s2.1-.2,3.8-.5c1.7-.3,3.3-.7,4.8-1.3l-1.2-2.9c-1.9.6-3.2.9-3.9.9-2.9,0-4.9-.6-6-1.7-1.1-1.2-1.6-3.3-1.6-6.5s.1-2.3.4-5.9c.2-3.6.4-6.2.4-7.7v-13.5h12v-3.8h-12v-9.7l-9.7,2.9v6.8h-6v3.8h6.7l-.7,28.5ZM239.1,111.9c0,2.9,1.3,5.4,4,7.4,2.7,2,5.7,3,9.1,3s2.1-.2,3.8-.5c1.7-.3,3.3-.7,4.8-1.3l-1.2-2.9c-1.9.6-3.2.9-3.9.9-2.9,0-4.9-.6-6-1.7-1.1-1.2-1.6-3.3-1.6-6.5s.1-2.3.4-5.9c.2-3.6.4-6.2.4-7.7v-13.5h12v-3.8h-12v-9.7l-9.7,2.9v6.8h-6v3.8h6.7l-.7,28.5ZM227.8,79.6h-9v42h9v-42ZM213.3,78.3c-.6,0-1.1,0-1.6,0-.5,0-1,.2-1.5.3-.5.2-.9.3-1.3.4-.3.1-.7.3-1.2.7-.5.4-.9.6-1.1.7-.2.1-.6.5-1.2,1-.6.5-.9.9-1.1,1-.2.2-.6.6-1.2,1.2-.7.7-1.1,1.1-1.2,1.3l-3.4,3.4-2.3-8.9h-6.8v42h9v-28.9l3.9-3.9c1-1,2.2-1.7,3.5-2,1.3-.3,2.9-.5,4.7-.5h2.1l.7-8.1ZM157.8,79.6h-9.6c0,.9.5,2.7,1.4,5.3.9,2.6,1.4,4.5,1.4,5.7s0,1.2-.3,1.7l-7.8,22.4h-1.2l-12.1-35.1h-9.5l14.6,42h9.1l9.3-26.9,6.6,19.1,2.7,7.8h9.1l14.6-42h-3.2l-12.2,35.1h-1.2l-11.7-33.6v-1.4ZM86.8,121.7v-34.9l10.7-3.4c1.4-.4,2.8-.7,4.2-.7,2.2,0,3.8.6,4.7,1.7,1,1.2,1.4,3.1,1.4,5.8v31.5h9v-32.3c0-3-1.1-5.5-3.3-7.5-2.2-2-5-3-8.3-3s-2.4.1-4.2.4c-1.9.3-3.5.7-4.9,1.3l-9.5,3.8-2-4.8h-6.8v42h9ZM34,112c0,3,1.1,5.5,3.3,7.4,2.2,2,5,3,8.3,3s2.4-.1,4.2-.4c1.9-.3,3.5-.7,4.9-1.3l9.4-3.7,2,4.7h6.8v-42h-9v34.9l-10.7,3.4c-1.5.5-2.9.7-4.2.7-2.2,0-3.8-.6-4.7-1.7-1-1.2-1.4-3.1-1.4-5.9v-31.5h-9v32.4Z"/>
  <path class="cls-1" d="M236.3,57.8c-6.8-6.2-9-14.6-10.6-24.1h-1.2v20.1c1.8.6,3.2,2.2,3.2,4.2s-2,4.5-4.5,4.5-4.5-2-4.5-4.5,1.3-3.6,3.1-4.2v-20.2h-1.2c-1.6,9.5-3.8,17.9-10.6,24.1l2.7,9.5h19.5l4-9.5Z"/>
</svg>