<?xml version="1.0" encoding="UTF-8"?>
<svg id="svg7642" xmlns="http://www.w3.org/2000/svg" xmlns:svg="http://www.w3.org/2000/svg" version="1.1" viewBox="0 0 564 302.8">
  <defs>
    <style>
      .cls-1 {
        fill: none;
        stroke: #fff;
        stroke-miterlimit: 3.9;
        stroke-width: 4.4px;
      }

      .cls-2 {
        fill: #828282;
      }

      .cls-2, .cls-3 {
        stroke-width: 0px;
      }

      .cls-3 {
        fill: #231f20;
      }
    </style>
  </defs>
  <g id="layer1">
    <path id="path146" class="cls-2" d="M365.1,96.9C365.1,43.4,409.6,0,464.5,0s99.4,43.4,99.4,96.9-44.5,96.9-99.4,96.9-99.4-43.4-99.4-96.9"/>
    <path id="path148" class="cls-2" d="M404.7,46.8l55.7-29.3,60.6,50.8V24.3l-118.3,93.9v-40.6l118.3,89.5v-40.6l-58,49.7-58.2-27,114.4-52.7-114.5-49.7h0Z"/>
    <path id="path150" class="cls-1" d="M404.7,46.8l55.7-29.3,60.6,50.8V24.3l-118.3,93.9v-40.6l118.3,89.5v-40.6l-58,49.7-58.2-27,114.4-52.7-114.5-49.7h0Z"/>
    <path id="path152" class="cls-2" d="M434,45.5c0-3.1,2.5-5.6,5.6-5.6s5.6,2.5,5.6,5.6-2.5,5.6-5.6,5.6-5.6-2.5-5.6-5.6"/>
    <path id="path154" class="cls-1" d="M434,45.5c0-3.1,2.5-5.6,5.6-5.6s5.6,2.5,5.6,5.6-2.5,5.6-5.6,5.6-5.6-2.5-5.6-5.6Z"/>
    <path id="path156" class="cls-2" d="M478.5,96.4c0-3.1,2.5-5.6,5.6-5.6s5.6,2.5,5.6,5.6-2.5,5.6-5.6,5.6-5.6-2.5-5.6-5.6"/>
    <path id="path158" class="cls-1" d="M478.5,96.4c0-3.1,2.5-5.6,5.6-5.6s5.6,2.5,5.6,5.6-2.5,5.6-5.6,5.6-5.6-2.5-5.6-5.6Z"/>
    <path id="path160" class="cls-2" d="M435,149.4c0-3.1,2.5-5.6,5.6-5.6s5.6,2.5,5.6,5.6-2.5,5.6-5.6,5.6-5.6-2.5-5.6-5.6"/>
    <path id="path162" class="cls-1" d="M435,149.4c0-3.1,2.5-5.6,5.6-5.6s5.6,2.5,5.6,5.6-2.5,5.6-5.6,5.6-5.6-2.5-5.6-5.6Z"/>
    <path id="path164" class="cls-3" d="M304.4,178.9l-21.4,3.4v5.1c7.2,3.1,8.3,6.4,8.3,24.8v33l-1,33.1c-.5,13.4-2.3,16.1-10.9,18.4v4.2h36.9v-4.2c-6.2-1.2-9.5-2.9-10.7-6-.7-1.9-1.2-6.2-1.2-12.4v-41.2c11.9-4.6,15.3-5.5,20.6-5.5,8.6,0,13.8,6.4,13.8,17v1.1l-1.2,28.6c-.5,14.1-2.3,16.8-11.8,18.4v4.2h36.7v-4.2c-9.6-2.9-10.7-4.5-10.7-18.4v-36.7c0-8.6-1.3-13.6-4.6-16.5-3.1-2.9-8.5-4.8-12.8-4.8-7.9,0-14.7,2.8-30,12l2.4-51.1-2.4-2.2h0ZM107.8,180.7c-5.3,0-9.4,4.4-9.4,10.1s4.1,10.1,9.4,10.1,9.4-4.6,9.4-10.1-4.3-10.1-9.4-10.1ZM4.6,190.7v3.5c10.1,3.6,11.9,6.9,11.9,21.4v62.8C16.5,291.9,13.7,295.3,0,297.4v3.6h52v-3.6c-15.8-2.2-21.2-7.3-21.2-19v-28.6l17.6.7c13.1.3,15.8,2.8,17.9,14.3h3.6v-34.4h-3.6c-2.4,10.5-5.2,12.5-17.9,13l-17.6.5v-47.4l17.6,1.2c10.7.7,16.7,5.8,23.7,20.1l3.6-2.4-2.4-24.8H4.6ZM112.7,220.3l-20.5,4.8v3.5c6.7,2.9,8.4,6.6,8.4,18.5s0,1.9-.1,2.7l-1.1,28.6c-.7,14.1-2.3,16.8-11.8,18.4v4.2h37.7v-4.2c-6.2-1.2-9.5-2.9-10.7-6-.7-1.9-1.1-6.2-1.1-12.4v-33.3l1.4-22.3-2.2-2.5h0ZM473.4,220.3l-22.6,4.8v3.5c8.2,4,9.7,6.6,9.7,18.2s0,2-.1,3l-1.1,28.6c-.7,13.4-2.2,16.1-10.8,18.4v4.2h43.8v-4.2c-15.1-1.2-18.9-4.8-18.9-18.4v-29.9c4.1-7.4,7.9-10.8,12.5-10.8s7.8,1.2,12.4,3.6l1.4-2.2c2.9-4.5,4.2-8.7,4.2-12.3s-2.4-5.6-5.5-5.6c-8.9,0-12.7,2.8-25.1,18.7v-19.6h0ZM164.6,220.9c-14.6,0-26.2,10-26.2,23.1s5.9,16.8,19.1,22.6l10.7,4.8c8.1,3.6,10.6,6.4,10.6,12.3s-5.3,12.4-13.4,12.4-12-3-17.5-11.9c-2.1-3.4-4.4-7.3-7-11.8l-3.7,1.2,2.5,25.6,9.4,1.7c6.4,1.2,11.7,1.6,16,1.6,15.3,0,26.8-10.2,26.8-24s-6.1-17.6-19.1-22.7l-11.8-4.8c-6.9-2.7-10.7-7-10.7-12.3s5.8-11.4,12.7-11.4,11.5,3.3,15.8,8.4c1.7,2.1,3.9,4.8,6,8.2l4.7-1.1-3.6-18.4c-11.5-2.9-14.9-3.6-21.2-3.6h0ZM243.2,220.9c-21.3,0-36,17.8-36,43.6s12.3,38.1,30.7,38.1,25.6-5.9,32.2-16.4l-4.8-2c-9.1,5.2-13.4,6.6-19.4,6.6-15.3,0-24.5-11.7-24.5-31.7s7.7-29.9,21-29.9,9.7,2.1,11,6.6l2.4,7.1c1,2.9,3.9,4.7,7,4.7s7.3-3.9,7.3-8.6c0-9.4-12.7-18.1-26.8-18.1h0ZM412.7,220.9c-23.5,0-38.4,16.6-38.4,43.6s12.4,38.4,30.3,38.4,31.1-8,33.1-16.6l-3.4-.7c-11.2,4.1-15.2,5.2-21.6,5.2-16,0-25.3-11.6-25.3-31v-4.5h48.5c.9-5,1.2-9.4,1.2-12.8,0-13.6-8.9-21.5-24.6-21.5h0ZM409.6,228.6c8.2,0,14.6,5.8,14.6,13v3.6l-2.5,3h-33.1c4-12.7,11.4-19.6,21-19.6Z"/>
  </g>
</svg>